<svg width="156" height="230" viewBox="0 0 156 230" fill="none" xmlns="http://www.w3.org/2000/svg">
<g opacity="0.4">
<g clip-path="url(#clip0_213_492)">
<path d="M90.1029 217.525C89.6358 218.736 81.9141 216.872 72.7897 213.353C63.7056 209.849 56.6909 206.031 57.158 204.82C57.6251 203.609 65.3468 205.473 74.4712 208.992C83.5957 212.511 90.57 216.314 90.1029 217.525Z" fill="#D6D6D6"/>
<path d="M134.976 176.082C145.952 147.759 137.236 117.974 115.509 109.554C93.7822 101.135 67.2719 117.27 56.2966 145.593C45.3213 173.916 54.0371 203.701 75.764 212.12C97.4908 220.54 124.001 204.405 134.976 176.082Z" fill="#AFAFAF"/>
<path d="M134.976 176.082C145.952 147.759 137.236 117.974 115.509 109.554C93.7822 101.135 67.2719 117.27 56.2966 145.593C45.3213 173.916 54.0371 203.701 75.764 212.12C97.4908 220.54 124.001 204.405 134.976 176.082Z" stroke="#1D422E" stroke-width="0.75" stroke-miterlimit="10" stroke-linejoin="round"/>
<path d="M128.529 173.58C139.504 145.257 130.788 115.472 109.062 107.053C87.3348 98.6333 60.8245 114.768 49.8493 143.091C38.874 171.414 47.5899 201.2 69.3167 209.619C91.0436 218.038 117.554 201.903 128.529 173.58Z" fill="#AFAFAF"/>
<path d="M128.529 173.58C139.504 145.257 130.788 115.472 109.062 107.053C87.3348 98.6333 60.8245 114.768 49.8493 143.091C38.874 171.414 47.5899 201.2 69.3167 209.619C91.0436 218.038 117.554 201.903 128.529 173.58Z" stroke="#1D422E" stroke-width="0.75" stroke-miterlimit="10" stroke-linejoin="round"/>
<path d="M121.428 170.828C130.417 147.631 123.27 123.232 105.466 116.333C87.6608 109.433 65.9398 122.645 56.9506 145.843C47.9613 169.041 55.1077 193.439 72.9126 200.339C90.7174 207.238 112.438 194.026 121.428 170.828Z" fill="white"/>
<path d="M121.428 170.828C130.417 147.631 123.27 123.232 105.466 116.333C87.6608 109.433 65.9398 122.645 56.9506 145.843C47.9613 169.041 55.1077 193.439 72.9126 200.339C90.7174 207.238 112.438 194.026 121.428 170.828Z" stroke="#1D422E" stroke-width="0.75" stroke-miterlimit="10" stroke-linejoin="round"/>
<path d="M112.874 167.514C119.48 150.466 114.231 132.538 101.15 127.469C88.0695 122.4 72.1104 132.111 65.5045 149.158C58.8986 166.205 64.1474 184.134 77.2281 189.202C90.3088 194.271 106.268 184.561 112.874 167.514Z" fill="#AFAFAF"/>
<path d="M112.874 167.514C119.48 150.466 114.231 132.538 101.15 127.469C88.0695 122.4 72.1104 132.111 65.5045 149.158C58.8986 166.205 64.1474 184.134 77.2281 189.202C90.3088 194.271 106.268 184.561 112.874 167.514Z" stroke="#1D422E" stroke-width="0.75" stroke-miterlimit="10" stroke-linejoin="round"/>
<path d="M105.611 164.699C110.188 152.889 106.545 140.466 97.4759 136.951C88.4064 133.436 77.3439 140.162 72.7673 151.972C68.1906 163.783 71.8328 176.206 80.9023 179.721C89.9719 183.235 101.034 176.51 105.611 164.699Z" fill="white"/>
<path d="M105.611 164.699C110.188 152.889 106.545 140.466 97.4759 136.951C88.4064 133.436 77.3439 140.162 72.7673 151.972C68.1906 163.783 71.8328 176.206 80.9023 179.721C89.9719 183.235 101.034 176.51 105.611 164.699Z" stroke="#1D422E" stroke-width="0.75" stroke-miterlimit="10" stroke-linejoin="round"/>
<path d="M96.5326 161.181C98.5792 155.9 96.9504 150.345 92.8948 148.773C88.8391 147.202 83.8923 150.209 81.8457 155.49C79.7992 160.771 81.4279 166.327 85.4836 167.898C89.5393 169.47 94.4861 166.463 96.5326 161.181Z" fill="#AFAFAF"/>
<path d="M96.5326 161.181C98.5792 155.9 96.9504 150.345 92.8948 148.773C88.8391 147.202 83.8923 150.209 81.8457 155.49C79.7992 160.771 81.4279 166.327 85.4836 167.898C89.5393 169.47 94.4861 166.463 96.5326 161.181Z" stroke="#1D422E" stroke-width="0.75" stroke-miterlimit="10" stroke-linejoin="round"/>
<path d="M86.8425 157.553C86.5934 158.198 85.9716 158.608 85.4468 158.406C84.9219 158.203 84.7206 157.523 84.9853 156.836C85.2344 156.19 85.8561 155.781 86.381 155.983C86.8903 156.226 87.132 156.922 86.8425 157.553Z" fill="#AFAFAF"/>
<path d="M90.8798 159.11C90.9421 158.948 90.663 158.469 90.1381 158.267L85.4524 155.625L84.5337 158.007L89.7955 159.155C90.3048 159.398 90.8487 159.19 90.8798 159.11Z" fill="#1D422E"/>
<path d="M85.9138 157.194C85.6646 157.84 85.0429 158.25 84.5181 158.048C83.9932 157.845 83.7919 157.165 84.0566 156.478C84.3057 155.832 84.9274 155.423 85.4523 155.625C85.9771 155.827 86.1629 156.548 85.9138 157.194Z" fill="#AFAFAF"/>
<path d="M85.9138 157.194C85.6646 157.84 85.0429 158.25 84.5181 158.048C83.9932 157.845 83.7919 157.165 84.0566 156.478C84.3057 155.832 84.9274 155.423 85.4523 155.625C85.9771 155.827 86.1629 156.548 85.9138 157.194Z" stroke="#1D422E" stroke-width="0.6587" stroke-miterlimit="10" stroke-linejoin="round"/>
<path d="M88.7803 158.3C89.3564 156.806 88.8949 155.237 87.7644 154.801L78.3977 151.188L76.3269 156.558L85.7339 160.186C86.8085 160.647 88.2042 159.794 88.7803 158.3Z" fill="white"/>
<path d="M88.7803 158.3C89.3564 156.806 88.8949 155.237 87.7644 154.801L78.3977 151.188L76.3269 156.558L85.7339 160.186C86.8085 160.647 88.2042 159.794 88.7803 158.3Z" stroke="#1D422E" stroke-width="0.6587" stroke-miterlimit="10" stroke-linejoin="round"/>
<path d="M79.4135 154.688C78.8374 156.181 77.4417 157.035 76.3113 156.599C75.1808 156.163 74.7193 154.593 75.2954 153.099C75.8715 151.606 77.2672 150.753 78.3977 151.188C79.5281 151.624 79.9896 153.194 79.4135 154.688Z" fill="#AFAFAF"/>
<path d="M79.4135 154.688C78.8374 156.181 77.4417 157.035 76.3113 156.599C75.1808 156.163 74.7193 154.593 75.2954 153.099C75.8715 151.606 77.2672 150.753 78.3977 151.188C79.5281 151.624 79.9896 153.194 79.4135 154.688Z" stroke="#1D422E" stroke-width="0.6587" stroke-miterlimit="10" stroke-linejoin="round"/>
<path d="M64.6772 149.004C64.4281 149.65 63.8063 150.06 63.2815 149.858C62.7566 149.655 62.5553 148.975 62.82 148.288C63.0691 147.642 63.6908 147.233 64.2157 147.435C64.725 147.678 64.9263 148.358 64.6772 149.004Z" fill="#AFAFAF"/>
<path d="M78.0005 154.143C78.2496 153.497 78.0639 152.776 77.539 152.573L63.2871 147.077L62.3685 149.459L76.6204 154.955C77.1297 155.198 77.7358 154.829 78.0005 154.143Z" fill="white" stroke="#1D422E" stroke-width="0.6587" stroke-miterlimit="10"/>
<path d="M63.7485 148.646C63.4994 149.292 62.8776 149.702 62.3528 149.499C61.8279 149.297 61.6266 148.616 61.8913 147.93C62.156 147.244 62.7621 146.875 63.287 147.077C63.7963 147.32 63.9976 148 63.7485 148.646Z" fill="#AFAFAF"/>
<path d="M63.7485 148.646C63.4994 149.292 62.8776 149.702 62.3528 149.499C61.8279 149.297 61.6266 148.616 61.8913 147.93C62.156 147.244 62.7621 146.875 63.287 147.077C63.7963 147.32 63.9976 148 63.7485 148.646Z" stroke="#1D422E" stroke-width="0.6587" stroke-miterlimit="10" stroke-linejoin="round"/>
<path d="M62.525 147.85C62.0249 147.703 61.5779 147.299 61.3391 146.836C61.2151 146.556 61.1066 146.236 61.2156 145.954C61.4025 145.469 62.0023 145.237 62.5335 145.302C63.45 145.331 64.2759 145.835 64.9029 146.494C65.5298 147.154 65.9423 148.008 66.2739 148.832L62.525 147.85Z" fill="#AFAFAF"/>
<path d="M62.525 147.85C62.0249 147.703 61.5779 147.299 61.3391 146.836C61.2151 146.556 61.1066 146.236 61.2156 145.954C61.4025 145.469 62.0023 145.237 62.5335 145.302C63.45 145.331 64.2759 145.835 64.9029 146.494C65.5298 147.154 65.9423 148.008 66.2739 148.832L62.525 147.85Z" stroke="#1D422E" stroke-width="0.6587" stroke-miterlimit="10"/>
<path d="M62.1889 148.601C61.7044 148.415 61.1265 148.47 60.623 148.693C60.3433 148.817 60.0728 149.038 59.9638 149.32C59.8173 149.82 60.1772 150.33 60.615 150.638C61.385 151.167 62.3666 151.267 63.2646 151.103C64.1626 150.939 64.977 150.511 65.7665 150.028L62.1889 148.601Z" fill="#AFAFAF"/>
<path d="M62.1889 148.601C61.7044 148.415 61.1265 148.47 60.623 148.693C60.3433 148.817 60.0728 149.038 59.9638 149.32C59.8173 149.82 60.1772 150.33 60.615 150.638C61.385 151.167 62.3666 151.267 63.2646 151.103C64.1626 150.939 64.977 150.511 65.7665 150.028L62.1889 148.601Z" stroke="#1D422E" stroke-width="0.6587" stroke-miterlimit="10"/>
<path d="M65.0993 149.353C64.1084 149.156 63.0276 148.832 62.0182 148.443C61.6549 148.303 61.3071 148.122 60.9997 147.957C60.7078 147.752 60.4719 147.522 60.4782 147.385C60.4938 147.345 60.5094 147.304 60.5094 147.304C60.5653 147.28 60.702 147.286 60.8635 147.348C60.9846 147.395 61.1461 147.457 61.2673 147.504C61.7517 147.691 62.2362 147.878 62.7207 148.064C63.5282 148.376 64.5779 148.781 65.3854 149.092C65.668 149.201 66.4039 149.578 66.1709 149.581C65.9131 149.527 65.3975 149.421 65.0993 149.353Z" fill="#AFAFAF"/>
<path d="M65.0993 149.353C64.1084 149.156 63.0276 148.832 62.0182 148.443C61.6549 148.303 61.3071 148.122 60.9997 147.957C60.7078 147.752 60.4719 147.522 60.4782 147.385C60.4938 147.345 60.5094 147.304 60.5094 147.304C60.5653 147.28 60.702 147.286 60.8635 147.348C60.9846 147.395 61.1461 147.457 61.2673 147.504C61.7517 147.691 62.2362 147.878 62.7207 148.064C63.5282 148.376 64.5779 148.781 65.3854 149.092C65.668 149.201 66.4039 149.578 66.1709 149.581C65.9131 149.527 65.3975 149.421 65.0993 149.353Z" stroke="#1D422E" stroke-width="0.6587" stroke-miterlimit="10"/>
<path d="M119.303 148.784C119.054 149.43 118.433 149.839 117.908 149.637C117.383 149.434 117.182 148.754 117.446 148.067C117.695 147.421 118.317 147.012 118.842 147.214C119.367 147.417 119.568 148.097 119.303 148.784Z" fill="#AFAFAF"/>
<path d="M123.356 150.3C123.418 150.139 123.139 149.66 122.614 149.458L117.929 146.816L117.01 149.198L122.272 150.346C122.766 150.629 123.309 150.421 123.356 150.3Z" fill="#1D422E"/>
<path d="M118.375 148.425C118.126 149.071 117.504 149.481 116.979 149.279C116.454 149.076 116.253 148.396 116.518 147.709C116.767 147.063 117.388 146.654 117.913 146.856C118.438 147.059 118.639 147.739 118.375 148.425Z" fill="#AFAFAF"/>
<path d="M118.375 148.425C118.126 149.071 117.504 149.481 116.979 149.279C116.454 149.076 116.253 148.396 116.518 147.709C116.767 147.063 117.388 146.654 117.913 146.856C118.438 147.059 118.639 147.739 118.375 148.425Z" stroke="#1D422E" stroke-width="0.6587" stroke-miterlimit="10" stroke-linejoin="round"/>
<path d="M121.241 149.531C121.817 148.037 121.356 146.468 120.225 146.032L110.818 142.404L108.748 147.774L118.155 151.402C119.285 151.838 120.681 150.984 121.241 149.531Z" fill="white"/>
<path d="M121.241 149.531C121.817 148.037 121.356 146.468 120.225 146.032L110.818 142.404L108.748 147.774L118.155 151.402C119.285 151.838 120.681 150.984 121.241 149.531Z" stroke="#1D422E" stroke-width="0.6587" stroke-miterlimit="10" stroke-linejoin="round"/>
<path d="M111.85 145.863C111.274 147.357 109.878 148.21 108.748 147.774C107.617 147.338 107.156 145.768 107.732 144.275C108.308 142.781 109.703 141.928 110.834 142.364C111.949 142.84 112.426 144.369 111.85 145.863Z" fill="#AFAFAF"/>
<path d="M111.85 145.863C111.274 147.357 109.878 148.21 108.748 147.774C107.617 147.338 107.156 145.768 107.732 144.275C108.308 142.781 109.703 141.928 110.834 142.364C111.949 142.84 112.426 144.369 111.85 145.863Z" stroke="#1D422E" stroke-width="0.6587" stroke-miterlimit="10" stroke-linejoin="round"/>
<path d="M97.1381 140.236C96.889 140.882 96.2673 141.291 95.7424 141.089C95.2176 140.886 95.0162 140.206 95.2809 139.519C95.5301 138.873 96.1518 138.464 96.6766 138.666C97.2015 138.869 97.4028 139.549 97.1381 140.236Z" fill="#AFAFAF"/>
<path d="M110.461 145.374C110.711 144.728 110.525 144.007 110 143.804L95.748 138.308L94.8294 140.69L109.081 146.186C109.566 146.373 110.212 146.02 110.461 145.374Z" fill="white" stroke="#1D422E" stroke-width="0.6587" stroke-miterlimit="10"/>
<path d="M96.1691 139.862C95.92 140.508 95.2983 140.917 94.7734 140.715C94.2486 140.513 94.0472 139.832 94.3119 139.146C94.5611 138.5 95.1828 138.09 95.7077 138.293C96.2325 138.495 96.4338 139.175 96.1691 139.862Z" fill="#AFAFAF"/>
<path d="M96.1691 139.862C95.92 140.508 95.2983 140.917 94.7734 140.715C94.2486 140.513 94.0472 139.832 94.3119 139.146C94.5611 138.5 95.1828 138.09 95.7077 138.293C96.2325 138.495 96.4338 139.175 96.1691 139.862Z" stroke="#1D422E" stroke-width="0.6587" stroke-miterlimit="10" stroke-linejoin="round"/>
<path d="M94.9862 139.081C94.4861 138.934 94.0391 138.53 93.8003 138.067C93.6763 137.787 93.5678 137.467 93.6768 137.185C93.8637 136.7 94.4635 136.468 94.9947 136.533C95.9111 136.562 96.7371 137.066 97.364 137.725C97.991 138.385 98.4034 139.239 98.7351 140.063L94.9862 139.081Z" fill="#AFAFAF"/>
<path d="M94.9862 139.081C94.4861 138.934 94.0391 138.53 93.8003 138.067C93.6763 137.787 93.5678 137.467 93.6768 137.185C93.8637 136.7 94.4635 136.468 94.9947 136.533C95.9111 136.562 96.7371 137.066 97.364 137.725C97.991 138.385 98.4034 139.239 98.7351 140.063L94.9862 139.081Z" stroke="#1D422E" stroke-width="0.6587" stroke-miterlimit="10"/>
<path d="M94.6098 139.817C94.1253 139.63 93.5474 139.685 93.0439 139.909C92.7642 140.033 92.4937 140.253 92.3847 140.536C92.2382 141.036 92.5981 141.545 93.0359 141.853C93.8059 142.382 94.7875 142.483 95.6855 142.319C96.5835 142.155 97.3979 141.727 98.1874 141.243L94.6098 139.817Z" fill="#AFAFAF"/>
<path d="M94.6098 139.817C94.1253 139.63 93.5474 139.685 93.0439 139.909C92.7642 140.033 92.4937 140.253 92.3847 140.536C92.2382 141.036 92.5981 141.545 93.0359 141.853C93.8059 142.382 94.7875 142.483 95.6855 142.319C96.5835 142.155 97.3979 141.727 98.1874 141.243L94.6098 139.817Z" stroke="#1D422E" stroke-width="0.6587" stroke-miterlimit="10"/>
<path d="M97.5605 140.584C96.5696 140.387 95.4888 140.063 94.4794 139.674C94.1161 139.534 93.7683 139.353 93.4608 139.188C93.169 138.983 92.9331 138.753 92.9394 138.616C92.955 138.576 92.9706 138.535 92.9706 138.535C93.0265 138.511 93.1632 138.517 93.3247 138.579C93.4458 138.626 93.6073 138.688 93.7284 138.735C94.2129 138.922 94.6974 139.109 95.1819 139.296C95.9894 139.607 97.0391 140.012 97.8466 140.323C98.1292 140.432 98.8651 140.809 98.6321 140.812C98.3899 140.718 97.8743 140.612 97.5605 140.584Z" fill="#AFAFAF"/>
<path d="M97.5605 140.584C96.5696 140.387 95.4888 140.063 94.4794 139.674C94.1161 139.534 93.7683 139.353 93.4608 139.188C93.169 138.983 92.9331 138.753 92.9394 138.616C92.955 138.576 92.9706 138.535 92.9706 138.535C93.0265 138.511 93.1632 138.517 93.3247 138.579C93.4458 138.626 93.6073 138.688 93.7284 138.735C94.2129 138.922 94.6974 139.109 95.1819 139.296C95.9894 139.607 97.0391 140.012 97.8466 140.323C98.1292 140.432 98.8651 140.809 98.6321 140.812C98.3495 140.703 97.8743 140.612 97.5605 140.584Z" stroke="#1D422E" stroke-width="0.6587" stroke-miterlimit="10"/>
<path d="M78.812 184.509C78.5628 185.155 77.9411 185.564 77.4162 185.362C76.8914 185.159 76.6901 184.479 76.9548 183.793C77.2039 183.147 77.8256 182.737 78.3505 182.939C78.8753 183.142 79.0766 183.822 78.812 184.509Z" fill="#AFAFAF"/>
<path d="M82.8247 186.01C82.8869 185.848 82.6078 185.37 82.0829 185.167L77.3972 182.525L76.4786 184.907L81.7404 186.055C82.2341 186.339 82.778 186.131 82.8247 186.01Z" fill="#1D422E"/>
<path d="M77.843 184.135C77.5938 184.781 76.9721 185.191 76.4473 184.988C75.9224 184.786 75.7211 184.105 75.9858 183.419C76.2349 182.773 76.8566 182.363 77.3815 182.566C77.9063 182.768 78.1077 183.449 77.843 184.135Z" fill="#AFAFAF"/>
<path d="M77.843 184.135C77.5938 184.781 76.9721 185.191 76.4473 184.988C75.9224 184.786 75.7211 184.105 75.9858 183.419C76.2349 182.773 76.8566 182.363 77.3815 182.566C77.9063 182.768 78.1077 183.449 77.843 184.135Z" stroke="#1D422E" stroke-width="0.6587" stroke-miterlimit="10" stroke-linejoin="round"/>
<path d="M80.7095 185.241C81.2856 183.747 80.8241 182.177 79.6936 181.741L70.3269 178.129L68.2561 183.499L77.6631 187.127C78.7532 187.547 80.1489 186.694 80.7095 185.241Z" fill="white"/>
<path d="M80.7095 185.241C81.2856 183.747 80.8241 182.177 79.6936 181.741L70.3269 178.129L68.2561 183.499L77.6631 187.127C78.7532 187.547 80.1489 186.694 80.7095 185.241Z" stroke="#1D422E" stroke-width="0.6587" stroke-miterlimit="10" stroke-linejoin="round"/>
<path d="M71.3584 181.588C70.7823 183.082 69.3865 183.935 68.2561 183.499C67.1256 183.063 66.6641 181.494 67.2402 180C67.8163 178.506 69.212 177.653 70.3425 178.089C71.4574 178.565 71.9189 180.134 71.3584 181.588Z" fill="#AFAFAF"/>
<path d="M71.3584 181.588C70.7823 183.082 69.3865 183.935 68.2561 183.499C67.1256 183.063 66.6641 181.494 67.2402 180C67.8163 178.506 69.212 177.653 70.3425 178.089C71.4574 178.565 71.9189 180.134 71.3584 181.588Z" stroke="#1D422E" stroke-width="0.6587" stroke-miterlimit="10" stroke-linejoin="round"/>
<path d="M56.6469 175.961C56.3978 176.607 55.7761 177.016 55.2512 176.814C54.7264 176.611 54.525 175.931 54.7897 175.244C55.0389 174.598 55.6606 174.189 56.1854 174.391C56.6699 174.578 56.9116 175.274 56.6469 175.961Z" fill="#AFAFAF"/>
<path d="M69.9299 181.083C70.179 180.437 69.9932 179.716 69.4684 179.514L55.2568 174.033L54.3382 176.415L68.5901 181.912C69.0746 182.098 69.6807 181.729 69.9299 181.083Z" fill="white" stroke="#1D422E" stroke-width="0.6587" stroke-miterlimit="10"/>
<path d="M55.6779 175.587C55.4288 176.233 54.8071 176.643 54.2822 176.44C53.7574 176.238 53.556 175.557 53.8207 174.871C54.0699 174.225 54.6916 173.815 55.2164 174.018C55.7413 174.22 55.9426 174.901 55.6779 175.587Z" fill="#AFAFAF"/>
<path d="M55.6779 175.587C55.4288 176.233 54.8071 176.643 54.2822 176.44C53.7574 176.238 53.556 175.557 53.8207 174.871C54.0699 174.225 54.6916 173.815 55.2164 174.018C55.7413 174.22 55.9426 174.901 55.6779 175.587Z" stroke="#1D422E" stroke-width="0.6587" stroke-miterlimit="10" stroke-linejoin="round"/>
<path d="M54.4544 174.791C53.9544 174.644 53.5074 174.24 53.2686 173.777C53.1445 173.497 53.0361 173.177 53.1451 172.894C53.3319 172.41 53.9317 172.177 54.4629 172.243C55.3794 172.272 56.2053 172.776 56.8323 173.435C57.4593 174.094 57.8717 174.949 58.2034 175.773L54.4544 174.791Z" fill="#AFAFAF"/>
<path d="M54.4544 174.791C53.9544 174.644 53.5074 174.24 53.2686 173.777C53.1445 173.497 53.0361 173.177 53.1451 172.894C53.3319 172.41 53.9317 172.177 54.4629 172.243C55.3794 172.272 56.2053 172.776 56.8323 173.435C57.4593 174.094 57.8717 174.949 58.2034 175.773L54.4544 174.791Z" stroke="#1D422E" stroke-width="0.6587" stroke-miterlimit="10"/>
<path d="M54.1183 175.542C53.6338 175.355 53.0559 175.411 52.5524 175.634C52.2727 175.758 52.0022 175.978 51.8932 176.261C51.7467 176.761 52.1067 177.271 52.5444 177.579C53.3144 178.108 54.2961 178.208 55.1941 178.044C56.0921 177.88 56.9064 177.452 57.696 176.968L54.1183 175.542Z" fill="#AFAFAF"/>
<path d="M54.1183 175.542C53.6338 175.355 53.0559 175.411 52.5524 175.634C52.2727 175.758 52.0022 175.978 51.8932 176.261C51.7467 176.761 52.1067 177.271 52.5444 177.579C53.3144 178.108 54.2961 178.208 55.1941 178.044C56.0921 177.88 56.9064 177.452 57.696 176.968L54.1183 175.542Z" stroke="#1D422E" stroke-width="0.6587" stroke-miterlimit="10"/>
<path d="M57.0288 176.293C56.0379 176.097 54.957 175.773 53.9477 175.383C53.5843 175.243 53.2365 175.063 52.9291 174.898C52.6373 174.693 52.4014 174.462 52.4077 174.326C52.4233 174.285 52.4388 174.245 52.4388 174.245C52.4948 174.22 52.6315 174.227 52.793 174.289C52.9141 174.336 53.0756 174.398 53.1967 174.445C53.6812 174.631 54.1657 174.818 54.6502 175.005C55.4576 175.317 56.5073 175.721 57.3148 176.033C57.5974 176.142 58.3334 176.518 58.1004 176.521C57.8581 176.428 57.3425 176.322 57.0288 176.293Z" fill="#AFAFAF"/>
<path d="M57.0288 176.293C56.0379 176.097 54.957 175.773 53.9477 175.383C53.5843 175.243 53.2365 175.063 52.9291 174.898C52.6373 174.693 52.4014 174.462 52.4077 174.326C52.4233 174.285 52.4388 174.245 52.4388 174.245C52.4948 174.22 52.6315 174.227 52.793 174.289C52.9141 174.336 53.0756 174.398 53.1967 174.445C53.6812 174.631 54.1657 174.818 54.6502 175.005C55.4576 175.317 56.5073 175.721 57.3148 176.033C57.5974 176.142 58.3334 176.518 58.1004 176.521C57.8581 176.428 57.3425 176.322 57.0288 176.293Z" stroke="#1D422E" stroke-width="0.6587" stroke-miterlimit="10"/>
</g>
<path d="M47.9838 111.545C47.7347 112.191 47.113 112.601 46.5881 112.399C46.0633 112.196 45.8619 111.516 46.1266 110.829C46.3758 110.183 46.9975 109.774 47.5223 109.976C48.0316 110.219 48.233 110.9 47.9838 111.545Z" fill="#AFAFAF"/>
<path d="M52.0212 113.103C52.0835 112.941 51.8043 112.462 51.2794 112.26L46.5938 109.618L45.6751 112L50.9369 113.148C51.4462 113.391 51.9901 113.183 52.0212 113.103Z" fill="#1D422E"/>
<path d="M47.0551 111.187C46.806 111.833 46.1843 112.243 45.6594 112.04C45.1346 111.838 44.9332 111.157 45.1979 110.471C45.4471 109.825 46.0688 109.416 46.5936 109.618C47.1029 109.861 47.3042 110.541 47.0551 111.187Z" fill="#AFAFAF"/>
<path d="M47.0551 111.187C46.806 111.833 46.1843 112.243 45.6594 112.04C45.1346 111.838 44.9332 111.157 45.1979 110.471C45.4471 109.825 46.0688 109.416 46.5936 109.618C47.1029 109.861 47.3042 110.541 47.0551 111.187Z" stroke="#1D422E" stroke-width="0.6587" stroke-miterlimit="10" stroke-linejoin="round"/>
<path d="M49.9217 112.293C50.4978 110.799 50.0363 109.23 48.9059 108.794L39.4988 105.166L37.4279 110.536L46.835 114.163C47.9499 114.64 49.3456 113.787 49.9217 112.293Z" fill="white"/>
<path d="M49.9217 112.293C50.4978 110.799 50.0363 109.23 48.9059 108.794L39.4988 105.166L37.4279 110.536L46.835 114.163C47.9499 114.64 49.3456 113.787 49.9217 112.293Z" stroke="#1D422E" stroke-width="0.6587" stroke-miterlimit="10" stroke-linejoin="round"/>
<path d="M40.5148 108.665C39.9387 110.159 38.543 111.012 37.4126 110.576C36.2821 110.14 35.8206 108.571 36.3967 107.077C36.9728 105.583 38.3685 104.73 39.499 105.166C40.6295 105.602 41.091 107.171 40.5148 108.665Z" fill="#AFAFAF"/>
<path d="M40.5148 108.665C39.9387 110.159 38.543 111.012 37.4126 110.576C36.2821 110.14 35.8206 108.571 36.3967 107.077C36.9728 105.583 38.3685 104.73 39.499 105.166C40.6295 105.602 41.091 107.171 40.5148 108.665Z" stroke="#1D422E" stroke-width="0.6587" stroke-miterlimit="10" stroke-linejoin="round"/>
<path d="M25.8185 102.997C25.5694 103.643 24.9477 104.053 24.4228 103.85C23.898 103.648 23.6967 102.968 23.9614 102.281C24.2105 101.635 24.8322 101.226 25.3571 101.428C25.8664 101.671 26.0677 102.351 25.8185 102.997Z" fill="#AFAFAF"/>
<path d="M39.1419 108.136C39.391 107.49 39.2052 106.769 38.6804 106.566L24.4285 101.07L23.5098 103.452L37.7617 108.948C38.271 109.191 38.8772 108.822 39.1419 108.136Z" fill="white" stroke="#1D422E" stroke-width="0.6587" stroke-miterlimit="10"/>
<path d="M24.8901 102.639C24.641 103.285 24.0192 103.695 23.4944 103.492C22.9695 103.29 22.7682 102.609 23.0329 101.923C23.282 101.277 23.9037 100.868 24.4286 101.07C24.8975 101.297 25.1392 101.993 24.8901 102.639Z" fill="#AFAFAF"/>
<path d="M24.8901 102.639C24.641 103.285 24.0192 103.695 23.4944 103.492C22.9695 103.29 22.7682 102.609 23.0329 101.923C23.282 101.277 23.9037 100.868 24.4286 101.07C24.8975 101.297 25.1392 101.993 24.8901 102.639Z" stroke="#1D422E" stroke-width="0.6587" stroke-miterlimit="10" stroke-linejoin="round"/>
<path d="M23.6666 101.843C23.1665 101.696 22.7195 101.292 22.4807 100.829C22.3567 100.549 22.2482 100.229 22.3572 99.9466C22.5441 99.4621 23.1439 99.2297 23.6751 99.2954C24.5916 99.3242 25.4175 99.8282 26.0445 100.487C26.6311 101.131 27.0591 101.945 27.3752 102.809L23.6666 101.843Z" fill="#AFAFAF"/>
<path d="M23.6666 101.843C23.1665 101.696 22.7195 101.292 22.4807 100.829C22.3567 100.549 22.2482 100.229 22.3572 99.9466C22.5441 99.4621 23.1439 99.2297 23.6751 99.2954C24.5916 99.3242 25.4175 99.8282 26.0445 100.487C26.6311 101.131 27.0591 101.945 27.3752 102.809L23.6666 101.843Z" stroke="#1D422E" stroke-width="0.6587" stroke-miterlimit="10"/>
<path d="M23.2902 102.579C22.8057 102.392 22.2278 102.447 21.7243 102.671C21.4446 102.795 21.1741 103.015 21.0651 103.298C20.9186 103.798 21.2785 104.307 21.7163 104.615C22.4863 105.144 23.468 105.245 24.366 105.081C25.264 104.917 26.0783 104.489 26.8679 104.005L23.2902 102.579Z" fill="#AFAFAF"/>
<path d="M23.2902 102.579C22.8057 102.392 22.2278 102.447 21.7243 102.671C21.4446 102.795 21.1741 103.015 21.0651 103.298C20.9186 103.798 21.2785 104.307 21.7163 104.615C22.4863 105.144 23.468 105.245 24.366 105.081C25.264 104.917 26.0783 104.489 26.8679 104.005L23.2902 102.579Z" stroke="#1D422E" stroke-width="0.6587" stroke-miterlimit="10"/>
<path d="M26.2407 103.346C25.2498 103.149 24.1689 102.825 23.1596 102.436C22.7962 102.296 22.4484 102.115 22.141 101.95C21.8492 101.745 21.6133 101.515 21.6196 101.378C21.6352 101.338 21.6507 101.297 21.6507 101.297C21.7067 101.273 21.8434 101.279 22.0049 101.341C22.126 101.388 22.2875 101.45 22.4086 101.497C22.8931 101.684 23.3776 101.871 23.8621 102.057C24.6695 102.369 25.7193 102.774 26.5267 103.085C26.8093 103.194 27.5453 103.571 27.3123 103.574C27.0545 103.52 26.5389 103.414 26.2407 103.346Z" fill="#AFAFAF"/>
<path d="M26.2407 103.346C25.2498 103.149 24.1689 102.825 23.1596 102.436C22.7962 102.296 22.4484 102.115 22.141 101.95C21.8492 101.745 21.6133 101.515 21.6196 101.378C21.6352 101.338 21.6507 101.297 21.6507 101.297C21.7067 101.273 21.8434 101.279 22.0049 101.341C22.126 101.388 22.2875 101.45 22.4086 101.497C22.8931 101.684 23.3776 101.871 23.8621 102.057C24.6695 102.369 25.7193 102.774 26.5267 103.085C26.8093 103.194 27.5453 103.571 27.3123 103.574C27.0141 103.505 26.5389 103.414 26.2407 103.346Z" stroke="#1D422E" stroke-width="0.6587" stroke-miterlimit="10"/>
<path d="M11.8355 92.8409C11.6609 92.6269 11.3459 92.595 11.132 92.7696C10.918 92.9442 10.8861 93.2592 11.0607 93.4731L11.8355 92.8409ZM6.33042 86.6643C6.46991 86.9026 6.77618 86.9827 7.01451 86.8433C7.25283 86.7038 7.33296 86.3975 7.19348 86.1592L6.33042 86.6643ZM3.70064 78.8274C3.6051 78.5683 3.31762 78.4358 3.05853 78.5313C2.79944 78.6268 2.66686 78.9143 2.7624 79.1734L3.70064 78.8274ZM0.746556 71.1069C0.781324 71.3808 1.03159 71.5747 1.30553 71.54C1.57948 71.5052 1.77337 71.2549 1.7386 70.981L0.746556 71.1069ZM1.85058 62.9378C1.89557 62.6653 1.71118 62.408 1.43873 62.363C1.16628 62.318 0.908936 62.5024 0.86394 62.7748L1.85058 62.9378ZM3.5091 54.8652C3.38153 55.1101 3.47665 55.4121 3.72156 55.5396C3.96647 55.6672 4.26843 55.5721 4.396 55.3272L3.5091 54.8652ZM9.08894 48.7903C9.27787 48.5889 9.26776 48.2725 9.06636 48.0836C8.86497 47.8946 8.54854 47.9047 8.35962 48.1061L9.08894 48.7903ZM14.6503 42.6909C14.4249 42.8503 14.3713 43.1624 14.5308 43.3878C14.6902 43.6133 15.0022 43.6668 15.2277 43.5074L14.6503 42.6909ZM22.3184 38.9705C22.5477 38.8166 22.6089 38.506 22.455 38.2767C22.3012 38.0474 21.9906 37.9862 21.7612 38.1401L22.3184 38.9705ZM28.4564 32.9462C28.2526 33.1326 28.2385 33.4489 28.4249 33.6526C28.6113 33.8564 28.9276 33.8705 29.1313 33.6841L28.4564 32.9462ZM34.7999 27.1399C34.9497 26.908 34.8831 26.5985 34.6511 26.4487C34.4191 26.2989 34.1096 26.3655 33.9598 26.5975L34.7999 27.1399ZM36.9399 18.8862C36.9045 19.16 37.0979 19.4107 37.3717 19.4461C37.6456 19.4815 37.8963 19.2882 37.9317 19.0143L36.9399 18.8862ZM36.6716 10.3861C36.562 10.1326 36.2677 10.0159 36.0142 10.1255C35.7608 10.2351 35.6441 10.5294 35.7537 10.7829L36.6716 10.3861ZM30.9205 4.0288C31.1206 4.21909 31.4371 4.21112 31.6274 4.011C31.8177 3.81088 31.8097 3.4944 31.6096 3.30412L30.9205 4.0288ZM14.5286 95.8766C13.6465 94.9657 12.7399 93.9492 11.8355 92.8409L11.0607 93.4731C11.9826 94.6028 12.9079 95.6405 13.8102 96.5723L14.5286 95.8766ZM7.19348 86.1592C5.85519 83.8725 4.65221 81.4079 3.70064 78.8274L2.7624 79.1734C3.73681 81.8158 4.96634 84.3336 6.33042 86.6643L7.19348 86.1592ZM1.7386 70.981C1.40228 68.3311 1.40559 65.6321 1.85058 62.9378L0.86394 62.7748C0.40148 65.575 0.399441 68.3719 0.746556 71.1069L1.7386 70.981ZM4.396 55.3272C5.55361 53.1048 7.09603 50.9147 9.08894 48.7903L8.35962 48.1061C6.30761 50.2936 4.71104 52.5577 3.5091 54.8652L4.396 55.3272ZM15.2277 43.5074C16.2965 42.7516 17.4386 42.0094 18.6576 41.2827L18.1456 40.4237C16.9053 41.1631 15.7413 41.9194 14.6503 42.6909L15.2277 43.5074ZM18.6576 41.2827C19.9538 40.51 21.1729 39.739 22.3184 38.9705L21.7612 38.1401C20.6313 38.8981 19.4273 39.6596 18.1456 40.4237L18.6576 41.2827ZM29.1313 33.6841C31.5599 31.4629 33.421 29.2753 34.7999 27.1399L33.9598 26.5975C32.6344 28.6501 30.832 30.7735 28.4564 32.9462L29.1313 33.6841ZM37.9317 19.0143C38.3377 15.872 37.7865 12.9653 36.6716 10.3861L35.7537 10.7829C36.8062 13.2178 37.3202 15.9435 36.9399 18.8862L37.9317 19.0143ZM31.6096 3.30412C30.5002 2.2492 29.3375 1.3365 28.2001 0.583144L27.6479 1.41686C28.7378 2.13874 29.8545 3.01515 30.9205 4.0288L31.6096 3.30412Z" fill="white"/>
</g>
<defs>
<clipPath id="clip0_213_492">
<rect width="91.6502" height="112.378" fill="white" transform="translate(69.5012 91.6395) rotate(21.0894)"/>
</clipPath>
</defs>
</svg>
