<svg width="104" height="103" viewBox="0 0 104 103" fill="none" xmlns="http://www.w3.org/2000/svg">
<g opacity="0.4">
<path d="M25.7555 27.2198C19.3438 27.2198 14.0188 30.8129 14.0188 35.2769C14.0188 35.6036 14.0188 35.9302 14.1275 36.148V94.3985C14.1275 94.5074 14.1275 94.6163 14.1275 94.7251C14.1275 99.1892 19.3438 102.782 25.8641 102.782C32.2759 102.782 37.6008 99.1892 37.6008 94.7251V35.3858C37.3835 30.9218 32.1672 27.2198 25.7555 27.2198Z" fill="#D6D6D6"/>
<path d="M52.0543 37.019C45.6426 37.019 40.3176 40.6121 40.3176 45.0761C40.3176 45.4028 40.3176 45.7294 40.4263 45.9472V79.2643C40.4263 79.3732 40.4263 79.482 40.4263 79.5909C40.4263 84.055 45.6426 87.648 52.163 87.648C58.5747 87.648 63.8997 84.055 63.8997 79.5909V45.0761C63.791 40.6121 58.5747 37.019 52.0543 37.019Z" fill="#D6D6D6"/>
<path d="M78.0272 44.0962C71.6155 44.0962 66.2905 47.6892 66.2905 52.1533C66.2905 52.4799 66.2905 52.6977 66.3992 53.0243V63.8034C66.3992 63.9123 66.3992 64.0211 66.3992 64.13C66.3992 68.5941 71.6155 72.1871 78.1359 72.1871C84.5476 72.1871 89.8726 68.5941 89.8726 64.13V52.2622C89.7639 47.7981 84.5476 44.0962 78.0272 44.0962Z" fill="#D6D6D6"/>
<path d="M9.23706 0.435547V101.258L103.565 45.7294" stroke="white" stroke-width="0.75" stroke-miterlimit="10" stroke-linecap="round" stroke-linejoin="round"/>
<path d="M8.91106 10.6702L0.43457 15.8964" stroke="white" stroke-width="0.75" stroke-miterlimit="10" stroke-linecap="round" stroke-linejoin="round"/>
<path d="M8.91106 30.7041L0.43457 35.9303" stroke="white" stroke-width="0.75" stroke-miterlimit="10" stroke-linecap="round" stroke-linejoin="round"/>
<path d="M8.91106 50.7379L0.43457 55.9641" stroke="white" stroke-width="0.75" stroke-miterlimit="10" stroke-linecap="round" stroke-linejoin="round"/>
<path d="M8.91106 71.7516L0.43457 76.9778" stroke="white" stroke-width="0.75" stroke-miterlimit="10" stroke-linecap="round" stroke-linejoin="round"/>
<path d="M8.91106 90.9144L0.43457 96.1406" stroke="white" stroke-width="0.75" stroke-miterlimit="10" stroke-linecap="round" stroke-linejoin="round"/>
<path d="M36.0794 31.0307C34.1233 28.5265 30.211 26.7844 25.7554 26.7844C21.2999 26.7844 17.3876 28.5265 15.4315 31.0307H14.1274V90.2612C14.1274 90.3701 14.1274 90.4789 14.1274 90.5878C14.1274 95.0519 19.3437 98.6449 25.8641 98.6449C32.2758 98.6449 37.6008 95.0519 37.6008 90.5878V31.0307H36.0794Z" fill="#AFAFAF"/>
<path d="M36.0794 31.0307C34.1233 28.5265 30.211 26.7844 25.7554 26.7844C21.2999 26.7844 17.3876 28.5265 15.4315 31.0307H14.1274V90.2612C14.1274 90.3701 14.1274 90.4789 14.1274 90.5878C14.1274 95.0519 19.3437 98.6449 25.8641 98.6449C32.2758 98.6449 37.6008 95.0519 37.6008 90.5878V31.0307H36.0794Z" stroke="#1D422E" stroke-width="0.75" stroke-miterlimit="10" stroke-linejoin="round"/>
<path d="M25.7555 39.0878C32.2375 39.0878 37.4922 35.4805 37.4922 31.0307C37.4922 26.5809 32.2375 22.9736 25.7555 22.9736C19.2735 22.9736 14.0188 26.5809 14.0188 31.0307C14.0188 35.4805 19.2735 39.0878 25.7555 39.0878Z" fill="white"/>
<path d="M25.7555 39.0878C32.2375 39.0878 37.4922 35.4805 37.4922 31.0307C37.4922 26.5809 32.2375 22.9736 25.7555 22.9736C19.2735 22.9736 14.0188 26.5809 14.0188 31.0307C14.0188 35.4805 19.2735 39.0878 25.7555 39.0878Z" stroke="#1D422E" stroke-width="0.75" stroke-miterlimit="10" stroke-linejoin="round"/>
<path d="M62.3782 40.721C60.4221 38.2168 56.5099 36.4747 52.0543 36.4747C47.5987 36.4747 43.6865 38.2168 41.7303 40.721H40.4263V74.9092C40.4263 75.0181 40.4263 75.1269 40.4263 75.2358C40.4263 79.6999 45.6426 83.2929 52.1629 83.2929C58.5746 83.2929 63.8996 79.6999 63.8996 75.2358V40.721H62.3782Z" fill="#AFAFAF"/>
<path d="M62.3782 40.721C60.4221 38.2168 56.5099 36.4747 52.0543 36.4747C47.5987 36.4747 43.6865 38.2168 41.7303 40.721H40.4263V74.9092C40.4263 75.0181 40.4263 75.1269 40.4263 75.2358C40.4263 79.6999 45.6426 83.2929 52.1629 83.2929C58.5746 83.2929 63.8996 79.6999 63.8996 75.2358V40.721H62.3782Z" stroke="#1D422E" stroke-width="0.75" stroke-miterlimit="10" stroke-linejoin="round"/>
<path d="M52.0543 48.7781C58.5363 48.7781 63.791 45.1708 63.791 40.721C63.791 36.2712 58.5363 32.6639 52.0543 32.6639C45.5723 32.6639 40.3176 36.2712 40.3176 40.721C40.3176 45.1708 45.5723 48.7781 52.0543 48.7781Z" fill="white"/>
<path d="M52.0543 48.7781C58.5363 48.7781 63.791 45.1708 63.791 40.721C63.791 36.2712 58.5363 32.6639 52.0543 32.6639C45.5723 32.6639 40.3176 36.2712 40.3176 40.721C40.3176 45.1708 45.5723 48.7781 52.0543 48.7781Z" stroke="#1D422E" stroke-width="0.75" stroke-miterlimit="10" stroke-linejoin="round"/>
<path d="M88.3511 47.9071C86.395 45.4028 82.4828 43.6608 78.0272 43.6608C73.5716 43.6608 69.6594 45.4028 67.7032 47.9071H66.3992V59.5572C66.3992 59.6661 66.3992 59.7749 66.3992 59.8838C66.3992 64.3479 71.6155 67.9409 78.1358 67.9409C84.5476 67.9409 89.8725 64.3479 89.8725 59.8838V47.9071H88.3511Z" fill="#AFAFAF"/>
<path d="M88.3511 47.9071C86.395 45.4028 82.4828 43.6608 78.0272 43.6608C73.5716 43.6608 69.6594 45.4028 67.7032 47.9071H66.3992V59.5572C66.3992 59.6661 66.3992 59.7749 66.3992 59.8838C66.3992 64.3479 71.6155 67.9409 78.1358 67.9409C84.5476 67.9409 89.8725 64.3479 89.8725 59.8838V47.9071H88.3511Z" stroke="#1D422E" stroke-width="0.75" stroke-miterlimit="10" stroke-linejoin="round"/>
<path d="M78.0272 55.9641C84.5092 55.9641 89.7639 52.3569 89.7639 47.9071C89.7639 43.4573 84.5092 39.85 78.0272 39.85C71.5452 39.85 66.2905 43.4573 66.2905 47.9071C66.2905 52.3569 71.5452 55.9641 78.0272 55.9641Z" fill="white"/>
<path d="M78.0272 55.9641C84.5092 55.9641 89.7639 52.3569 89.7639 47.9071C89.7639 43.4573 84.5092 39.85 78.0272 39.85C71.5452 39.85 66.2905 43.4573 66.2905 47.9071C66.2905 52.3569 71.5452 55.9641 78.0272 55.9641Z" stroke="#1D422E" stroke-width="0.75" stroke-miterlimit="10" stroke-linejoin="round"/>
</g>
</svg>
