<svg width="153" height="161" viewBox="0 0 153 161" fill="none" xmlns="http://www.w3.org/2000/svg">
<g opacity="0.4" clip-path="url(#clip0_213_408)">
<path d="M54.2993 80.3975L53.219 81.8439L53.134 81.7804C53.0069 81.9505 52.8798 82.1207 52.7527 82.2908L51.291 84.2476C51.1639 84.4178 51.1003 84.5029 50.9732 84.673C46.9695 90.0329 50.0177 99.0699 57.752 104.847C65.4862 110.625 75.0167 110.984 79.0204 105.624L82.2615 101.285L54.2993 80.3975Z" fill="#D6D6D6"/>
<path d="M89.2262 88.593C89.1343 83.7525 86.0699 78.2824 80.7155 74.2827C75.361 70.283 69.2462 68.8966 64.5786 70.1818L62.9638 68.9755L53.6003 81.3334C53.4732 81.5036 53.4096 81.5886 53.2825 81.7588C49.2788 87.1187 52.327 96.1557 60.0613 101.933C67.7955 107.71 77.326 108.069 81.3297 102.709L90.926 89.8627L89.2262 88.593Z" fill="#AFAFAF"/>
<path d="M89.2262 88.593C89.1343 83.7525 86.0699 78.2824 80.7155 74.2827C75.361 70.283 69.2462 68.8966 64.5786 70.1818L62.9638 68.9755L53.6003 81.3334C53.4732 81.5036 53.4096 81.5886 53.2825 81.7588C49.2788 87.1187 52.327 96.1557 60.0613 101.933C67.7955 107.71 77.326 108.069 81.3297 102.709L90.926 89.8627L89.2262 88.593Z" stroke="#1D422E" stroke-width="0.75" stroke-miterlimit="10" stroke-linejoin="round"/>
<path d="M55.4434 78.8661C51.4396 84.2261 54.4879 93.2631 62.2221 99.0404C69.9563 104.818 79.4868 105.177 83.4905 99.8168" stroke="#1D422E" stroke-width="0.75" stroke-miterlimit="10" stroke-linejoin="round"/>
<path d="M57.4771 76.1437C53.4733 81.5036 56.5216 90.5406 64.2558 96.3179C71.99 102.095 81.5205 102.454 85.5242 97.0944" stroke="#1D422E" stroke-width="0.75" stroke-miterlimit="10" stroke-linejoin="round"/>
<path d="M60.019 72.7405C56.0153 78.1004 59.0635 87.1375 66.7978 92.9148C74.532 98.6921 84.0625 99.0511 88.0662 93.6912" stroke="#1D422E" stroke-width="0.75" stroke-miterlimit="10" stroke-linejoin="round"/>
<path d="M69.5724 89.0227C77.3175 94.8081 86.8397 95.1557 90.8409 89.7992C94.8421 84.4427 91.8072 75.4104 84.0622 69.625C76.3171 63.8396 66.7949 63.492 62.7937 68.8485C58.7925 74.2051 61.8274 83.2374 69.5724 89.0227Z" fill="#FFFDFD" stroke="#1D422E" stroke-width="0.75" stroke-miterlimit="10" stroke-linejoin="round"/>
<path d="M69.5089 89.1078C84.6234 100.398 105.725 97.7044 116.641 83.0914C127.556 68.4783 124.152 47.4796 109.038 36.1894C93.9234 24.8991 72.8218 27.5928 61.9062 42.2058C50.9905 56.8188 54.3944 77.8176 69.5089 89.1078Z" stroke="white" stroke-width="0.75" stroke-miterlimit="10" stroke-linecap="round" stroke-linejoin="round"/>
<path d="M61.9062 42.2058C50.9754 56.8392 54.3805 77.8071 69.509 89.1078C84.6375 100.408 105.71 97.7248 116.641 83.0914" stroke="white" stroke-width="0.75" stroke-miterlimit="10" stroke-linecap="round" stroke-linejoin="round"/>
<path d="M68.7715 78.2181L86.3752 54.6516" stroke="#C4C4C4" stroke-width="0.75" stroke-miterlimit="10" stroke-linecap="round" stroke-linejoin="round"/>
<path d="M81.0103 87.3602L98.614 63.7936" stroke="#C4C4C4" stroke-width="0.75" stroke-miterlimit="10" stroke-linecap="round" stroke-linejoin="round"/>
<path d="M86.2688 54.4395C85.3791 55.6306 84.6172 57.1823 84.8316 58.6679C85.046 60.1536 86.4702 61.6151 87.9557 61.3992C88.7834 61.3547 89.4618 60.801 90.0552 60.1839C90.585 59.6518 90.9234 58.8442 90.8798 58.0163C90.8361 57.1884 90.1983 56.4469 89.4977 56.3212C88.7971 56.1955 88.1823 56.6641 87.6524 57.1962C86.5506 58.4939 86.3837 60.49 87.3408 61.8677C88.1279 63.1184 89.5299 63.9006 90.9732 63.9183C92.4166 63.9361 93.8162 63.1259 94.7274 62.0834C95.3629 61.2326 95.637 59.9793 94.9356 59.3228C94.1493 58.6029 92.7917 59.1794 91.9862 59.9032C91.5835 60.2651 91.1172 60.7121 90.8844 61.201C90.3553 62.2638 90.8668 63.7063 91.8232 64.5532C92.8431 65.315 94.1593 65.5029 95.3476 65.3302C96.536 65.1575 97.66 64.539 98.699 63.8571" stroke="#C4C4C4" stroke-width="0.75" stroke-miterlimit="10" stroke-linecap="round" stroke-linejoin="round"/>
<path d="M111.535 31.4275L114.586 27.3438" stroke="#AFAFAF" stroke-miterlimit="10" stroke-linecap="round" stroke-linejoin="round"/>
<path d="M122.483 43.1842L126.894 40.647" stroke="#AFAFAF" stroke-miterlimit="10" stroke-linecap="round" stroke-linejoin="round"/>
<path d="M128.087 58.372L133.074 57.7229" stroke="#AFAFAF" stroke-miterlimit="10" stroke-linecap="round" stroke-linejoin="round"/>
<path d="M127.219 74.4247L132.124 75.8352" stroke="#AFAFAF" stroke-miterlimit="10" stroke-linecap="round" stroke-linejoin="round"/>
<path d="M120.151 89.0275L124.019 92.1815" stroke="#AFAFAF" stroke-miterlimit="10" stroke-linecap="round" stroke-linejoin="round"/>
<path d="M98.6858 25.4078L99.8672 20.4581" stroke="#AFAFAF" stroke-miterlimit="10" stroke-linecap="round" stroke-linejoin="round"/>
<path d="M82.617 24.4064L81.7395 19.3768" stroke="#AFAFAF" stroke-miterlimit="10" stroke-linecap="round" stroke-linejoin="round"/>
<path d="M67.3853 29.7299L64.7261 25.4902" stroke="#AFAFAF" stroke-miterlimit="10" stroke-linecap="round" stroke-linejoin="round"/>
<path d="M55.3877 40.6504L51.266 37.8367" stroke="#AFAFAF" stroke-miterlimit="10" stroke-linecap="round" stroke-linejoin="round"/>
</g>
<defs>
<clipPath id="clip0_213_408">
<rect width="91.87" height="131.786" fill="white" transform="translate(78.8674) rotate(36.759)"/>
</clipPath>
</defs>
</svg>
